<svg width="849" height="148" viewBox="0 0 849 148" fill="none" xmlns="http://www.w3.org/2000/svg">
<path d="M66.125 52.875L54.3125 59.875C52.1042 56.0417 50 53.5417 48 52.375C45.9167 51.0417 43.2292 50.375 39.9375 50.375C35.8958 50.375 32.5417 51.5208 29.875 53.8125C27.2083 56.0625 25.875 58.8958 25.875 62.3125C25.875 67.0208 29.375 70.8125 36.375 73.6875L46 77.625C53.8333 80.7917 59.5625 84.6667 63.1875 89.25C66.8125 93.7917 68.625 99.375 68.625 106C68.625 114.875 65.6667 122.208 59.75 128C53.7917 133.833 46.3958 136.75 37.5625 136.75C29.1875 136.75 22.2708 134.271 16.8125 129.312C11.4375 124.354 8.08333 117.375 6.75 108.375L21.5 105.125C22.1667 110.792 23.3333 114.708 25 116.875C28 121.042 32.375 123.125 38.125 123.125C42.6667 123.125 46.4375 121.604 49.4375 118.562C52.4375 115.521 53.9375 111.667 53.9375 107C53.9375 105.125 53.6667 103.417 53.125 101.875C52.625 100.292 51.8125 98.8542 50.6875 97.5625C49.6042 96.2292 48.1875 95 46.4375 93.875C44.6875 92.7083 42.6042 91.6042 40.1875 90.5625L30.875 86.6875C17.6667 81.1042 11.0625 72.9375 11.0625 62.1875C11.0625 54.9375 13.8333 48.875 19.375 44C24.9167 39.0833 31.8125 36.625 40.0625 36.625C51.1875 36.625 59.875 42.0417 66.125 52.875ZM80.625 104.125C80.625 95.3333 83.7708 87.8542 90.0625 81.6875C96.3542 75.5208 104.021 72.4375 113.062 72.4375C122.146 72.4375 129.854 75.5417 136.188 81.75C142.438 87.9583 145.562 95.5833 145.562 104.625C145.562 113.75 142.417 121.396 136.125 127.562C129.792 133.688 122.021 136.75 112.812 136.75C103.688 136.75 96.0417 133.625 89.875 127.375C83.7083 121.208 80.625 113.458 80.625 104.125ZM95 104.375C95 110.458 96.625 115.271 99.875 118.812C103.208 122.396 107.604 124.188 113.062 124.188C118.562 124.188 122.958 122.417 126.25 118.875C129.542 115.333 131.188 110.604 131.188 104.688C131.188 98.7708 129.542 94.0417 126.25 90.5C122.917 86.9167 118.521 85.125 113.062 85.125C107.688 85.125 103.333 86.9167 100 90.5C96.6667 94.0833 95 98.7083 95 104.375ZM174.562 74.125V109.062C174.562 119.146 178.542 124.188 186.5 124.188C194.458 124.188 198.438 119.146 198.438 109.062V74.125H212.5V109.375C212.5 114.25 211.896 118.458 210.688 122C209.521 125.167 207.5 128.021 204.625 130.562C199.875 134.688 193.833 136.75 186.5 136.75C179.208 136.75 173.188 134.688 168.438 130.562C165.521 128.021 163.458 125.167 162.25 122C161.083 119.167 160.5 114.958 160.5 109.375V74.125H174.562ZM230.25 74.125H244.375V79.75C249.292 74.875 254.833 72.4375 261 72.4375C268.083 72.4375 273.604 74.6667 277.562 79.125C280.979 82.9167 282.688 89.1042 282.688 97.6875V135H268.562V101C268.562 95 267.729 90.8542 266.062 88.5625C264.438 86.2292 261.479 85.0625 257.188 85.0625C252.521 85.0625 249.208 86.6042 247.25 89.6875C245.333 92.7292 244.375 98.0417 244.375 105.625V135H230.25V74.125ZM345.375 29.4375H359.5V135H345.375V128.625C339.833 134.042 333.562 136.75 326.562 136.75C318.229 136.75 311.312 133.708 305.812 127.625C300.354 121.417 297.625 113.667 297.625 104.375C297.625 95.2917 300.354 87.7083 305.812 81.625C311.229 75.5 318.042 72.4375 326.25 72.4375C333.375 72.4375 339.75 75.3542 345.375 81.1875V29.4375ZM312 104.375C312 110.208 313.562 114.958 316.688 118.625C319.896 122.333 323.938 124.188 328.812 124.188C334.021 124.188 338.229 122.396 341.438 118.812C344.646 115.104 346.25 110.396 346.25 104.688C346.25 98.9792 344.646 94.2708 341.438 90.5625C338.229 86.9375 334.062 85.125 328.938 85.125C324.104 85.125 320.062 86.9583 316.812 90.625C313.604 94.3333 312 98.9167 312 104.375ZM379.938 135V38.5H394.438C400.896 38.5 406.042 39 409.875 40C413.75 41 417.021 42.6875 419.688 45.0625C422.396 47.5208 424.542 50.5833 426.125 54.25C427.75 57.9583 428.562 61.7083 428.562 65.5C428.562 72.4167 425.917 78.2708 420.625 83.0625C425.75 84.8125 429.792 87.875 432.75 92.25C435.75 96.5833 437.25 101.625 437.25 107.375C437.25 114.917 434.583 121.292 429.25 126.5C426.042 129.708 422.438 131.938 418.438 133.188C414.062 134.396 408.583 135 402 135H379.938ZM394.5 79.9375H399.062C404.479 79.9375 408.438 78.75 410.938 76.375C413.479 73.9583 414.75 70.4167 414.75 65.75C414.75 61.2083 413.458 57.7708 410.875 55.4375C408.292 53.0625 404.542 51.875 399.625 51.875H394.5V79.9375ZM394.5 121.312H403.5C410.083 121.312 414.917 120.021 418 117.438C421.25 114.646 422.875 111.104 422.875 106.812C422.875 102.646 421.312 99.1458 418.188 96.3125C415.146 93.5208 409.708 92.125 401.875 92.125H394.5V121.312ZM450.125 104.125C450.125 95.3333 453.271 87.8542 459.562 81.6875C465.854 75.5208 473.521 72.4375 482.562 72.4375C491.646 72.4375 499.354 75.5417 505.688 81.75C511.938 87.9583 515.062 95.5833 515.062 104.625C515.062 113.75 511.917 121.396 505.625 127.562C499.292 133.688 491.521 136.75 482.312 136.75C473.188 136.75 465.542 133.625 459.375 127.375C453.208 121.208 450.125 113.458 450.125 104.125ZM464.5 104.375C464.5 110.458 466.125 115.271 469.375 118.812C472.708 122.396 477.104 124.188 482.562 124.188C488.062 124.188 492.458 122.417 495.75 118.875C499.042 115.333 500.688 110.604 500.688 104.688C500.688 98.7708 499.042 94.0417 495.75 90.5C492.417 86.9167 488.021 85.125 482.562 85.125C477.188 85.125 472.833 86.9167 469.5 90.5C466.167 94.0833 464.5 98.7083 464.5 104.375ZM574.875 74.125H589V135H574.875V128.625C569.083 134.042 562.854 136.75 556.188 136.75C547.771 136.75 540.812 133.708 535.312 127.625C529.854 121.417 527.125 113.667 527.125 104.375C527.125 95.25 529.854 87.6458 535.312 81.5625C540.771 75.4792 547.604 72.4375 555.812 72.4375C562.896 72.4375 569.25 75.3542 574.875 81.1875V74.125ZM541.5 104.375C541.5 110.208 543.062 114.958 546.188 118.625C549.396 122.333 553.438 124.188 558.312 124.188C563.521 124.188 567.729 122.396 570.938 118.812C574.146 115.104 575.75 110.396 575.75 104.688C575.75 98.9792 574.146 94.2708 570.938 90.5625C567.729 86.9375 563.562 85.125 558.438 85.125C553.604 85.125 549.562 86.9583 546.312 90.625C543.104 94.3333 541.5 98.9167 541.5 104.375ZM606.75 74.125H620.812V79.5625C623.396 76.8542 625.688 75 627.688 74C629.729 72.9583 632.146 72.4375 634.938 72.4375C638.646 72.4375 642.521 73.6458 646.562 76.0625L640.125 88.9375C637.458 87.0208 634.854 86.0625 632.312 86.0625C624.646 86.0625 620.812 91.8542 620.812 103.438V135H606.75V74.125ZM698.625 29.4375H712.75V135H698.625V128.625C693.083 134.042 686.812 136.75 679.812 136.75C671.479 136.75 664.562 133.708 659.062 127.625C653.604 121.417 650.875 113.667 650.875 104.375C650.875 95.2917 653.604 87.7083 659.062 81.625C664.479 75.5 671.292 72.4375 679.5 72.4375C686.625 72.4375 693 75.3542 698.625 81.1875V29.4375ZM665.25 104.375C665.25 110.208 666.812 114.958 669.938 118.625C673.146 122.333 677.188 124.188 682.062 124.188C687.271 124.188 691.479 122.396 694.688 118.812C697.896 115.104 699.5 110.396 699.5 104.688C699.5 98.9792 697.896 94.2708 694.688 90.5625C691.479 86.9375 687.312 85.125 682.188 85.125C677.354 85.125 673.312 86.9583 670.062 90.625C666.854 94.3333 665.25 98.9167 665.25 104.375Z" fill="black"/>
<path fill-rule="evenodd" clip-rule="evenodd" d="M786.5 132.375C812.389 132.375 833.375 111.389 833.375 85.5C833.375 59.6117 812.389 38.625 786.5 38.625C760.612 38.625 739.625 59.6117 739.625 85.5C739.625 111.389 760.612 132.375 786.5 132.375ZM786.5 142.792C818.141 142.792 843.792 117.141 843.792 85.5C843.792 53.8587 818.141 28.2083 786.5 28.2083C754.859 28.2083 729.208 53.8587 729.208 85.5C729.208 117.141 754.859 142.792 786.5 142.792Z" fill="black"/>
<path d="M807.333 85.5L776.083 108.053V62.9472L807.333 85.5Z" fill="black"/>
</svg>
